<svg width="32" height="32" viewBox="0 0 32 32" fill="none" xmlns="http://www.w3.org/2000/svg">
<path d="M21.3333 21.3333L16 16L10.6666 21.3333" stroke="black" stroke-width="2" stroke-linecap="round" stroke-linejoin="round"/>
<path d="M16 16V28" stroke="black" stroke-width="2" stroke-linecap="round" stroke-linejoin="round"/>
<path d="M27.1866 24.52C28.4871 23.811 29.5144 22.6892 30.1064 21.3315C30.6985 19.9738 30.8216 18.4577 30.4562 17.0223C30.0909 15.5869 29.2579 14.314 28.0888 13.4046C26.9198 12.4952 25.4811 12.001 23.9999 12H22.32C21.9164 10.439 21.1642 8.9898 20.1199 7.76134C19.0756 6.53289 17.7664 5.55715 16.2907 4.9075C14.8151 4.25784 13.2113 3.95116 11.6001 4.01053C9.98886 4.06989 8.41204 4.49375 6.98818 5.25024C5.56433 6.00673 4.3305 7.07616 3.37944 8.37813C2.42839 9.6801 1.78487 11.1807 1.49725 12.7672C1.20964 14.3537 1.28542 15.9847 1.7189 17.5377C2.15238 19.0907 2.93227 20.5252 3.99995 21.7334" stroke="black" stroke-width="2" stroke-linecap="round" stroke-linejoin="round"/>
<path d="M21.3333 21.3333L16 16L10.6666 21.3333" stroke="black" stroke-width="2" stroke-linecap="round" stroke-linejoin="round"/>
</svg>
