<svg width="20" height="20" viewBox="0 0 20 20" fill="none" xmlns="http://www.w3.org/2000/svg">
<g clip-path="url(#clip0_1443_524)">
<path d="M16.6666 10V18.3333H3.33331V10" stroke="#53C1F9" stroke-width="2" stroke-linecap="round" stroke-linejoin="round"/>
<path d="M18.3334 5.83325H1.66669V9.99992H18.3334V5.83325Z" stroke="#53C1F9" stroke-width="2" stroke-linecap="round" stroke-linejoin="round"/>
<path d="M10 18.3333V5.83325" stroke="#53C1F9" stroke-width="2" stroke-linecap="round" stroke-linejoin="round"/>
<path d="M10 5.83341H13.75C14.3025 5.83341 14.8324 5.61392 15.2231 5.22322C15.6138 4.83252 15.8333 4.30262 15.8333 3.75008C15.8333 3.19755 15.6138 2.66764 15.2231 2.27694C14.8324 1.88624 14.3025 1.66675 13.75 1.66675C10.8333 1.66675 10 5.83341 10 5.83341Z" stroke="#53C1F9" stroke-width="2" stroke-linecap="round" stroke-linejoin="round"/>
<path d="M10 5.83341H6.25002C5.69749 5.83341 5.16758 5.61392 4.77688 5.22322C4.38618 4.83252 4.16669 4.30262 4.16669 3.75008C4.16669 3.19755 4.38618 2.66764 4.77688 2.27694C5.16758 1.88624 5.69749 1.66675 6.25002 1.66675C9.16669 1.66675 10 5.83341 10 5.83341Z" stroke="#53C1F9" stroke-width="2" stroke-linecap="round" stroke-linejoin="round"/>
</g>
<defs>
<clipPath id="clip0_1443_524">
<rect width="20" height="20" fill="white"/>
</clipPath>
</defs>
</svg>
