<svg width="155" height="50" viewBox="0 0 155 50" fill="none" xmlns="http://www.w3.org/2000/svg">
<path d="M78.3773 40.45C76.4573 40.45 74.6273 40.15 72.8873 39.55C71.1473 38.95 69.6323 38.11 68.3423 37.03C67.0523 35.95 66.1073 34.705 65.5073 33.295C65.2073 32.665 65.2073 32.08 65.5073 31.54C65.8373 31 66.3773 30.655 67.1273 30.505C67.6673 30.385 68.1923 30.475 68.7023 30.775C69.2423 31.045 69.6473 31.465 69.9173 32.035C70.2773 32.785 70.8623 33.475 71.6723 34.105C72.5123 34.735 73.5173 35.245 74.6873 35.635C75.8573 36.025 77.0873 36.22 78.3773 36.22C79.8173 36.22 81.1373 35.995 82.3373 35.545C83.5673 35.095 84.5573 34.45 85.3073 33.61C86.0573 32.74 86.4323 31.675 86.4323 30.415C86.4323 28.825 85.8023 27.4 84.5423 26.14C83.3123 24.88 81.2723 24.1 78.4223 23.8C74.7023 23.44 71.7773 22.345 69.6473 20.515C67.5173 18.685 66.4523 16.42 66.4523 13.72C66.4523 11.74 67.0073 10.06 68.1173 8.68C69.2273 7.3 70.7273 6.25 72.6173 5.53C74.5373 4.81 76.6673 4.45 79.0073 4.45C81.7373 4.45 83.9723 5.005 85.7123 6.115C87.4523 7.225 88.8923 8.695 90.0323 10.525C90.4523 11.185 90.6173 11.815 90.5273 12.415C90.4673 12.985 90.1823 13.435 89.6723 13.765C89.1023 14.125 88.4873 14.2 87.8273 13.99C87.1673 13.78 86.6723 13.39 86.3423 12.82C85.5923 11.53 84.6173 10.525 83.4173 9.805C82.2473 9.085 80.7323 8.71 78.8723 8.68C76.6523 8.65 74.7923 9.07 73.2923 9.94C71.7923 10.78 71.0423 12.085 71.0423 13.855C71.0423 14.755 71.2673 15.625 71.7173 16.465C72.1973 17.275 73.0523 17.98 74.2823 18.58C75.5423 19.18 77.3423 19.6 79.6823 19.84C83.2523 20.2 86.0273 21.295 88.0073 23.125C90.0173 24.925 91.0223 27.31 91.0223 30.28C91.0223 31.99 90.6623 33.475 89.9423 34.735C89.2523 35.995 88.3073 37.06 87.1073 37.93C85.9373 38.77 84.5873 39.4 83.0573 39.82C81.5573 40.24 79.9973 40.45 78.3773 40.45ZM100.044 40.045C99.3837 40.045 98.8287 39.835 98.3787 39.415C97.9587 38.965 97.7487 38.41 97.7487 37.75V17.68C97.7487 16.99 97.9587 16.435 98.3787 16.015C98.8287 15.595 99.3837 15.385 100.044 15.385C100.734 15.385 101.289 15.595 101.709 16.015C102.129 16.435 102.339 16.99 102.339 17.68V18.175C103.269 17.245 104.394 16.51 105.714 15.97C107.034 15.43 108.459 15.16 109.989 15.16C112.059 15.16 113.904 15.61 115.524 16.51C117.174 17.38 118.464 18.67 119.394 20.38C120.354 22.09 120.834 24.19 120.834 26.68V37.75C120.834 38.41 120.609 38.965 120.159 39.415C119.739 39.835 119.199 40.045 118.539 40.045C117.879 40.045 117.324 39.835 116.874 39.415C116.454 38.965 116.244 38.41 116.244 37.75V26.68C116.244 24.13 115.554 22.27 114.174 21.1C112.824 19.9 111.129 19.3 109.089 19.3C107.829 19.3 106.689 19.555 105.669 20.065C104.649 20.575 103.839 21.265 103.239 22.135C102.639 22.975 102.339 23.95 102.339 25.06V37.75C102.339 38.41 102.129 38.965 101.709 39.415C101.289 39.835 100.734 40.045 100.044 40.045ZM100.044 31.045C99.3837 31.045 98.8287 30.835 98.3787 30.415C97.9587 29.965 97.7487 29.41 97.7487 28.75V7.15C97.7487 6.46 97.9587 5.905 98.3787 5.485C98.8287 5.065 99.3837 4.855 100.044 4.855C100.734 4.855 101.289 5.065 101.709 5.485C102.129 5.905 102.339 6.46 102.339 7.15V28.75C102.339 29.41 102.129 29.965 101.709 30.415C101.289 30.835 100.734 31.045 100.044 31.045ZM138.727 40.18C136.537 40.18 134.572 39.64 132.832 38.56C131.092 37.45 129.712 35.965 128.692 34.105C127.702 32.215 127.207 30.085 127.207 27.715C127.207 25.345 127.747 23.215 128.827 21.325C129.937 19.435 131.422 17.95 133.282 16.87C135.172 15.76 137.287 15.205 139.627 15.205C141.967 15.205 144.067 15.76 145.927 16.87C147.787 17.95 149.257 19.435 150.337 21.325C151.447 23.215 152.002 25.345 152.002 27.715V37.75C152.002 38.41 151.777 38.965 151.327 39.415C150.907 39.835 150.367 40.045 149.707 40.045C149.047 40.045 148.492 39.835 148.042 39.415C147.622 38.965 147.412 38.41 147.412 37.75V36.085C146.362 37.345 145.087 38.35 143.587 39.1C142.117 39.82 140.497 40.18 138.727 40.18ZM139.627 36.13C141.157 36.13 142.522 35.77 143.722 35.05C144.922 34.3 145.867 33.295 146.557 32.035C147.247 30.745 147.592 29.305 147.592 27.715C147.592 26.095 147.247 24.655 146.557 23.395C145.867 22.105 144.922 21.1 143.722 20.38C142.522 19.63 141.157 19.255 139.627 19.255C138.127 19.255 136.762 19.63 135.532 20.38C134.332 21.1 133.372 22.105 132.652 23.395C131.962 24.655 131.617 26.095 131.617 27.715C131.617 29.305 131.962 30.745 132.652 32.035C133.372 33.295 134.332 34.3 135.532 35.05C136.762 35.77 138.127 36.13 139.627 36.13Z" fill="#14193F"/>
<mask id="mask0_11_379" style="mask-type:alpha" maskUnits="userSpaceOnUse" x="0" y="0" width="50" height="50">
<circle cx="25" cy="25" r="25" fill="#3783FB"/>
</mask>
<g mask="url(#mask0_11_379)">
<circle cx="25" cy="25" r="25" fill="#5142E6"/>
<circle cx="40" cy="25" r="25" fill="#53C1F9"/>
</g>
</svg>
